<svg width="257" height="60" viewBox="0 0 257 60" fill="none" xmlns="http://www.w3.org/2000/svg">
<path d="M1.7604 41.2594V38.6738H14.2483C16.9622 38.6738 19.126 37.9403 20.7397 36.4733C22.3901 34.9697 23.2153 33.0442 23.2153 30.697C23.2153 29.1567 22.8486 27.7997 22.1151 26.6261C21.4182 25.4158 20.428 24.4806 19.1444 23.8204C17.8974 23.1236 16.4304 22.7752 14.7434 22.7752H1.7604V20.2996H14.3033C16.5038 20.2996 18.2458 19.6762 19.5295 18.4292C20.8498 17.1823 21.5099 15.4769 21.5099 13.313C21.5099 11.1125 20.7948 9.40715 19.3644 8.19687C17.9341 6.94992 16.027 6.32644 13.6431 6.32644H1.7604V3.74085H13.6431C15.917 3.74085 17.8424 4.14428 19.4194 4.95113C21.0331 5.72131 22.2618 6.80322 23.1053 8.19687C23.9855 9.59053 24.4256 11.2226 24.4256 13.093C24.4256 15.2201 23.8571 17.0539 22.7202 18.5943C21.6199 20.1346 20.0246 21.2532 17.9341 21.95L18.2642 20.9598C20.7214 21.6566 22.6468 22.8852 24.0405 24.6456C25.4708 26.3694 26.186 28.4415 26.186 30.8621C26.186 32.8792 25.6909 34.6763 24.7007 36.2533C23.7104 37.8303 22.2984 39.0589 20.4647 39.9391C18.6676 40.8193 16.5038 41.2594 13.9732 41.2594H1.7604ZM0 41.2594V3.74085H2.91567V41.2594H0Z" fill="#DBB27A"/>
<path d="M32.3461 41.2594V15.6786H35.1518V41.2594H32.3461ZM35.1518 25.9659L33.7764 25.4708C33.7764 22.2067 34.6016 19.6762 36.252 17.8791C37.9024 16.0453 40.0662 15.1285 42.7435 15.1285C43.9904 15.1285 45.1457 15.3485 46.2093 15.7886C47.3095 16.2287 48.3181 16.9439 49.235 17.9341L47.3645 19.9146C46.6677 19.1444 45.9159 18.5943 45.109 18.2642C44.3022 17.9341 43.3486 17.7691 42.2484 17.7691C40.1579 17.7691 38.4525 18.4842 37.1322 19.9146C35.8119 21.3082 35.1518 23.3253 35.1518 25.9659Z" fill="#DBB27A"/>
<path d="M63.1007 41.8096C60.6435 41.8096 58.4247 41.2228 56.4442 40.0492C54.5004 38.8756 52.9601 37.2985 51.8231 35.3181C50.6862 33.3009 50.1178 31.0271 50.1178 28.4965C50.1178 26.0026 50.6862 23.7471 51.8231 21.73C52.9601 19.7128 54.5004 18.1175 56.4442 16.9439C58.388 15.7336 60.5701 15.1285 62.9907 15.1285C64.9712 15.1285 66.7316 15.5135 68.2719 16.2837C69.8489 17.0172 71.1326 18.0625 72.1228 19.4194C73.1497 20.7764 73.8098 22.3901 74.1032 24.2605V32.6225C73.7732 34.4929 73.0947 36.1249 72.0678 37.5186C71.0776 38.8756 69.8123 39.9391 68.2719 40.7093C66.7682 41.4428 65.0445 41.8096 63.1007 41.8096ZM63.4858 39.169C66.4198 39.169 68.7487 38.1971 70.4724 36.2533C72.2328 34.2728 73.113 31.6872 73.113 28.4965C73.113 26.3327 72.7096 24.4623 71.9027 22.8852C71.1326 21.2715 70.014 20.0246 68.547 19.1444C67.08 18.2275 65.3746 17.7691 63.4308 17.7691C61.4137 17.7691 59.6166 18.2275 58.0396 19.1444C56.4992 20.0613 55.2706 21.3265 54.3537 22.9402C53.4735 24.5539 53.0334 26.3877 53.0334 28.4415C53.0334 30.532 53.4735 32.3841 54.3537 33.9978C55.2706 35.6115 56.5175 36.8768 58.0946 37.7936C59.6716 38.7105 61.4687 39.169 63.4858 39.169ZM73.003 41.2594V34.3829L73.6081 28.1114L73.003 21.895V15.6786H75.8086V41.2594H73.003Z" fill="#DBB27A"/>
<path d="M102.21 41.2594V26.076C102.21 23.5821 101.476 21.5649 100.009 20.0246C98.5424 18.4842 96.5987 17.7141 94.1781 17.7141C92.5277 17.7141 91.0607 18.0808 89.7771 18.8143C88.5302 19.5111 87.5399 20.483 86.8064 21.73C86.1096 22.9769 85.7612 24.4256 85.7612 26.076L84.3308 25.2508C84.3308 23.307 84.7893 21.5833 85.7062 20.0796C86.623 18.5392 87.87 17.329 89.447 16.4488C91.024 15.5686 92.8211 15.1285 94.8383 15.1285C96.8554 15.1285 98.6158 15.6052 100.119 16.5588C101.66 17.4757 102.852 18.741 103.695 20.3547C104.539 21.9684 104.961 23.7654 104.961 25.7459V41.2594H102.21ZM82.9555 41.2594V15.6786H85.7612V41.2594H82.9555Z" fill="#DBB27A"/>
<path d="M137.821 41.8096C135.401 41.8096 133.237 41.2228 131.33 40.0492C129.423 38.8756 127.919 37.2985 126.819 35.3181C125.718 33.3009 125.168 31.0271 125.168 28.4965C125.168 25.9659 125.718 23.6921 126.819 21.675C127.919 19.6578 129.423 18.0625 131.33 16.8889C133.237 15.7153 135.401 15.1285 137.821 15.1285C139.692 15.1285 141.415 15.4952 142.992 16.2287C144.606 16.9622 145.963 18.0258 147.063 19.4194C148.163 20.7764 148.86 22.3901 149.154 24.2605V32.6225C148.824 34.4562 148.127 36.0699 147.063 37.4636C146 38.8205 144.661 39.8841 143.047 40.6543C141.47 41.4245 139.728 41.8096 137.821 41.8096ZM138.316 39.169C140.26 39.169 141.965 38.7105 143.432 37.7936C144.899 36.8768 146.036 35.6298 146.843 34.0528C147.687 32.4391 148.108 30.587 148.108 28.4965C148.108 26.3694 147.687 24.5173 146.843 22.9402C146 21.3265 144.826 20.0613 143.322 19.1444C141.855 18.2275 140.132 17.7691 138.151 17.7691C136.207 17.7691 134.465 18.2275 132.925 19.1444C131.421 20.0613 130.229 21.3265 129.349 22.9402C128.469 24.5173 128.029 26.351 128.029 28.4415C128.029 30.532 128.469 32.3841 129.349 33.9978C130.229 35.6115 131.44 36.8768 132.98 37.7936C134.52 38.7105 136.299 39.169 138.316 39.169ZM150.804 41.2594H147.998V34.3829L148.659 28.1114L147.998 21.895V2.6406H150.804V41.2594Z" fill="#DBB27A"/>
<path d="M159.371 25.0307C158.711 25.0307 158.18 24.8473 157.776 24.4806C157.373 24.0772 157.171 23.5454 157.171 22.8852C157.171 22.2618 157.373 21.7666 157.776 21.3999C158.18 21.0331 158.711 20.8498 159.371 20.8498C160.068 20.8498 160.6 21.0331 160.967 21.3999C161.334 21.7666 161.517 22.2618 161.517 22.8852C161.517 23.5454 161.334 24.0772 160.967 24.4806C160.6 24.8473 160.068 25.0307 159.371 25.0307ZM159.481 36.4733C160.545 36.4733 161.37 36.8768 161.957 37.6836C162.581 38.4538 162.892 39.5724 162.892 41.0394C162.892 42.4697 162.562 43.79 161.902 45.0003C161.279 46.2106 160.343 47.4208 159.096 48.6311C159.06 48.6678 159.005 48.6861 158.931 48.6861C158.821 48.6861 158.73 48.6311 158.656 48.5211C158.583 48.4111 158.583 48.3194 158.656 48.246C160.453 46.4123 161.352 44.2485 161.352 41.7545C161.352 40.801 161.169 40.0492 160.802 39.499C160.545 40.0492 160.013 40.3242 159.206 40.3242C158.583 40.3242 158.088 40.1592 157.721 39.8291C157.391 39.4624 157.226 38.9856 157.226 38.3988C157.226 37.1152 157.978 36.4733 159.481 36.4733Z" fill="#DBB27A"/>
<path d="M173.657 11.4976C172.96 11.4976 172.41 11.3143 172.007 10.9475C171.64 10.5808 171.457 10.0673 171.457 9.40715C171.457 8.747 171.64 8.23355 172.007 7.8668C172.41 7.50005 172.96 7.31667 173.657 7.31667C174.317 7.31667 174.831 7.50005 175.197 7.8668C175.564 8.23355 175.748 8.747 175.748 9.40715C175.748 10.0673 175.564 10.5808 175.197 10.9475C174.831 11.3143 174.317 11.4976 173.657 11.4976ZM169.201 39.8841C169.128 39.8841 169.091 39.7741 169.091 39.554C169.091 39.334 169.128 39.224 169.201 39.224C170.265 39.224 171.035 39.1323 171.512 38.9489C172.025 38.7655 172.373 38.4171 172.557 37.9037C172.74 37.3535 172.832 36.5284 172.832 35.4281V25.0307C172.832 23.6737 172.685 22.7019 172.392 22.1151C172.135 21.5283 171.677 21.2349 171.017 21.2349C170.32 21.2349 169.439 21.5099 168.376 22.06H168.321C168.174 22.06 168.064 21.9684 167.991 21.785C167.917 21.6016 167.954 21.4732 168.101 21.3999L174.922 18.2092L175.142 18.1542C175.216 18.1542 175.289 18.1908 175.363 18.2642C175.473 18.3375 175.528 18.4292 175.528 18.5392C175.528 18.7593 175.509 19.4928 175.473 20.7397C175.436 21.95 175.418 23.362 175.418 24.9757V35.4281C175.418 36.5284 175.491 37.3535 175.638 37.9037C175.821 38.4171 176.151 38.7655 176.628 38.9489C177.141 39.1323 177.93 39.224 178.993 39.224C179.103 39.224 179.158 39.334 179.158 39.554C179.158 39.7741 179.103 39.8841 178.993 39.8841C178.15 39.8841 177.49 39.8658 177.013 39.8291L174.097 39.7741L171.237 39.8291C170.723 39.8658 170.045 39.8841 169.201 39.8841Z" fill="#DBB27A"/>
<path d="M186.497 22.1701C186.497 23.527 186.918 24.5906 187.762 25.3608C188.605 26.0943 189.889 26.8828 191.613 27.7263C192.86 28.3498 193.85 28.8999 194.583 29.3767C195.317 29.8535 195.94 30.477 196.454 31.2471C196.967 31.9806 197.224 32.8792 197.224 33.9428C197.224 35.7765 196.527 37.3352 195.133 38.6188C193.777 39.8658 191.906 40.4893 189.522 40.4893C187.578 40.4893 185.855 39.9208 184.351 38.7839C184.131 38.6372 184.021 38.4171 184.021 38.1237L183.911 34.1628C183.911 34.0528 184.003 33.9978 184.186 33.9978C184.406 33.9611 184.534 33.9978 184.571 34.1078C185.268 35.9416 186.148 37.2985 187.212 38.1787C188.312 39.0223 189.614 39.444 191.118 39.444C192.365 39.444 193.318 39.169 193.978 38.6188C194.638 38.0687 194.968 37.2619 194.968 36.1983C194.968 35.1347 194.73 34.2545 194.253 33.5577C193.813 32.8242 193.245 32.2374 192.548 31.7973C191.888 31.3572 190.971 30.8621 189.797 30.3119C188.587 29.7251 187.615 29.2117 186.882 28.7716C186.185 28.2948 185.58 27.6713 185.066 26.9012C184.589 26.131 184.351 25.1774 184.351 24.0405C184.351 22.0967 185.085 20.593 186.552 19.5295C188.019 18.4659 189.742 17.9341 191.723 17.9341C193.08 17.9341 194.382 18.2092 195.629 18.7593C195.849 18.8693 195.977 18.961 196.014 19.0344C196.087 19.1077 196.124 19.2177 196.124 19.3644C196.124 20.0613 196.105 20.6114 196.069 21.0148L196.014 23.1603C196.014 23.2336 195.904 23.2703 195.684 23.2703C195.464 23.2703 195.354 23.2336 195.354 23.1603C195.354 21.9867 194.748 21.0148 193.538 20.2446C192.328 19.4378 191.044 19.0344 189.687 19.0344C188.697 19.0344 187.909 19.3094 187.322 19.8595C186.772 20.373 186.497 21.1432 186.497 22.1701Z" fill="#DBB27A"/>
<path d="M240.403 39.224C240.513 39.224 240.568 39.334 240.568 39.554C240.568 39.7741 240.513 39.8841 240.403 39.8841C239.559 39.8841 238.899 39.8658 238.422 39.8291L235.507 39.7741L232.646 39.8291C232.133 39.8658 231.454 39.8841 230.611 39.8841C230.537 39.8841 230.501 39.7741 230.501 39.554C230.501 39.334 230.537 39.224 230.611 39.224C231.674 39.224 232.444 39.1323 232.921 38.9489C233.435 38.7655 233.783 38.4171 233.966 37.9037C234.15 37.3535 234.241 36.5284 234.241 35.4281V26.461C234.241 24.2239 233.838 22.5735 233.031 21.5099C232.261 20.4463 231.032 19.9146 229.345 19.9146C228.208 19.9146 227.035 20.263 225.825 20.9598C224.651 21.6199 223.569 22.5552 222.579 23.7654C222.615 23.9488 222.634 24.2789 222.634 24.7557V35.4281C222.634 36.5284 222.725 37.3535 222.909 37.9037C223.092 38.4171 223.422 38.7655 223.899 38.9489C224.413 39.1323 225.201 39.224 226.265 39.224C226.338 39.224 226.375 39.334 226.375 39.554C226.375 39.7741 226.338 39.8841 226.265 39.8841C225.421 39.8841 224.743 39.8658 224.229 39.8291L221.368 39.7741L218.453 39.8291C217.976 39.8658 217.316 39.8841 216.472 39.8841C216.362 39.8841 216.307 39.7741 216.307 39.554C216.307 39.334 216.362 39.224 216.472 39.224C217.536 39.224 218.306 39.1323 218.783 38.9489C219.26 38.7655 219.59 38.4171 219.773 37.9037C219.956 37.3535 220.048 36.5284 220.048 35.4281V26.461C220.048 24.2239 219.645 22.5735 218.838 21.5099C218.068 20.4463 216.857 19.9146 215.207 19.9146C214.07 19.9146 212.915 20.2446 211.741 20.9048C210.568 21.5649 209.486 22.5001 208.496 23.7104V35.4281C208.496 36.5284 208.569 37.3535 208.716 37.9037C208.899 38.4171 209.229 38.7655 209.706 38.9489C210.219 39.1323 211.008 39.224 212.071 39.224C212.181 39.224 212.236 39.334 212.236 39.554C212.236 39.7741 212.181 39.8841 212.071 39.8841C211.228 39.8841 210.568 39.8658 210.091 39.8291L207.23 39.7741L204.315 39.8291C203.838 39.8658 203.178 39.8841 202.334 39.8841C202.224 39.8841 202.169 39.7741 202.169 39.554C202.169 39.334 202.224 39.224 202.334 39.224C203.398 39.224 204.168 39.1323 204.645 38.9489C205.121 38.7655 205.452 38.4171 205.635 37.9037C205.818 37.3535 205.91 36.5284 205.91 35.4281V24.4256C205.91 23.142 205.763 22.2251 205.47 21.675C205.176 21.1248 204.663 20.8498 203.93 20.8498C203.343 20.8498 202.316 21.1248 200.849 21.675H200.739C200.592 21.675 200.482 21.6016 200.409 21.4549C200.372 21.2715 200.427 21.1432 200.574 21.0698L206.68 18.2092C206.753 18.1725 206.845 18.1542 206.955 18.1542C207.249 18.1542 207.579 18.5759 207.945 19.4194C208.312 20.2263 208.496 21.2715 208.496 22.5552V22.7752C209.853 21.1248 211.191 19.9329 212.511 19.1994C213.832 18.4659 215.207 18.0991 216.637 18.0991C218.288 18.0991 219.608 18.5209 220.598 19.3644C221.625 20.1713 222.267 21.3816 222.524 22.9953C223.917 21.2715 225.293 20.0246 226.65 19.2544C228.007 18.4842 229.4 18.0991 230.831 18.0991C232.774 18.0991 234.26 18.6493 235.287 19.7495C236.314 20.8498 236.827 22.5185 236.827 24.7557V35.4281C236.827 36.5284 236.9 37.3535 237.047 37.9037C237.23 38.4171 237.561 38.7655 238.037 38.9489C238.551 39.1323 239.339 39.224 240.403 39.224Z" fill="#DBB27A"/>
<path d="M255.408 23.4904C253.538 23.7104 252.291 24.9024 251.668 27.0662C251.044 29.1933 250.732 31.999 250.732 35.4831C250.732 38.6372 250.549 40.966 250.182 42.4697C249.815 43.9734 249.119 44.9819 248.092 45.4954C247.101 46.0455 245.543 46.3206 243.416 46.3206C243.269 46.3206 243.196 46.2106 243.196 45.9905C243.196 45.7705 243.269 45.6604 243.416 45.6604C244.809 45.6604 245.891 45.147 246.661 44.1201C247.432 43.1299 247.853 41.6995 247.927 39.8291C248 35.3548 248.147 32.219 248.367 30.422C248.587 28.5882 249.082 27.1395 249.852 26.076C250.622 24.9757 251.943 23.9855 253.813 23.1053C251.906 22.2618 250.567 21.3265 249.797 20.2996C249.064 19.2361 248.587 17.8057 248.367 16.0087C248.147 14.1749 248 11.0025 247.927 6.49148C247.853 4.62105 247.432 3.19073 246.661 2.2005C245.891 1.1736 244.809 0.660149 243.416 0.660149C243.269 0.660149 243.196 0.550124 243.196 0.330074C243.196 0.110024 243.269 0 243.416 0C245.506 0 247.046 0.275062 248.037 0.825188C249.027 1.33864 249.724 2.3472 250.127 3.85088C250.531 5.31788 250.732 7.62841 250.732 10.7825C250.732 14.2299 251.044 17.0356 251.668 19.1994C252.291 21.3632 253.538 22.5552 255.408 22.7752C255.518 22.7752 255.573 22.9036 255.573 23.1603C255.573 23.3803 255.518 23.4904 255.408 23.4904Z" fill="#DBB27A"/>
<path d="M110.52 23.4904C110.41 23.4904 110.355 23.3803 110.355 23.1603C110.355 22.9036 110.41 22.7752 110.52 22.7752C112.391 22.5552 113.638 21.3632 114.261 19.1994C114.885 17.0356 115.196 14.2299 115.196 10.7825C115.196 7.62841 115.398 5.31788 115.801 3.85088C116.205 2.3472 116.902 1.33864 117.892 0.825188C118.882 0.275062 120.423 0 122.513 0C122.66 0 122.733 0.110024 122.733 0.330074C122.733 0.550124 122.66 0.660149 122.513 0.660149C121.119 0.660149 120.037 1.1736 119.267 2.2005C118.497 3.19073 118.075 4.62105 118.002 6.49148C117.929 11.0025 117.782 14.1749 117.562 16.0087C117.342 17.8057 116.847 19.2361 116.077 20.2996C115.343 21.3265 114.023 22.2618 112.116 23.1053C113.986 23.9855 115.306 24.9757 116.077 26.076C116.847 27.1395 117.342 28.5882 117.562 30.422C117.782 32.219 117.929 35.3548 118.002 39.8291C118.075 41.6995 118.497 43.1299 119.267 44.1201C120.037 45.147 121.119 45.6604 122.513 45.6604C122.66 45.6604 122.733 45.7705 122.733 45.9905C122.733 46.2106 122.66 46.3206 122.513 46.3206C120.386 46.3206 118.809 46.0455 117.782 45.4954C116.792 44.9819 116.113 43.9734 115.746 42.4697C115.38 40.966 115.196 38.6372 115.196 35.4831C115.196 31.999 114.885 29.1933 114.261 27.0662C113.638 24.9024 112.391 23.7104 110.52 23.4904Z" fill="#DBB27A"/>
<path d="M170.41 57.8457C170.052 57.8457 169.73 57.7577 169.444 57.5817C169.158 57.4056 168.93 57.1663 168.759 56.8638C168.594 56.5557 168.512 56.2118 168.512 55.8323C168.512 55.4472 168.594 55.1033 168.759 54.8008C168.93 54.4927 169.158 54.2507 169.444 54.0746C169.73 53.8931 170.052 53.8023 170.41 53.8023C170.701 53.8023 170.965 53.8601 171.202 53.9756C171.438 54.0911 171.634 54.2562 171.788 54.4707C171.947 54.6798 172.041 54.9273 172.068 55.2134V56.4264C172.035 56.707 171.942 56.9545 171.788 57.1691C171.639 57.3781 171.447 57.5432 171.21 57.6642C170.974 57.7852 170.707 57.8457 170.41 57.8457ZM170.509 57.2928C170.778 57.2928 171.015 57.2323 171.218 57.1113C171.422 56.9848 171.581 56.8115 171.697 56.5914C171.813 56.3659 171.87 56.1101 171.87 55.824C171.87 55.5324 171.81 55.2766 171.689 55.0566C171.573 54.8365 171.414 54.6632 171.21 54.5367C171.007 54.4102 170.77 54.3469 170.501 54.3469C170.231 54.3469 169.992 54.4102 169.783 54.5367C169.574 54.6632 169.409 54.8393 169.287 55.0648C169.172 55.2849 169.114 55.5379 169.114 55.824C169.114 56.1101 169.172 56.3659 169.287 56.5914C169.409 56.8115 169.574 56.9848 169.783 57.1113C169.997 57.2323 170.239 57.2928 170.509 57.2928ZM172.415 57.7632H171.837V56.7235L171.953 55.7662L171.837 54.8338V51.9209H172.415V57.7632Z" fill="#DBB27A"/>
<path d="M175.377 57.8457C174.986 57.8457 174.637 57.7577 174.329 57.5817C174.021 57.4056 173.776 57.1636 173.595 56.8555C173.419 56.5474 173.331 56.2008 173.331 55.8158C173.331 55.4362 173.419 55.0951 173.595 54.7925C173.771 54.4845 174.01 54.2424 174.313 54.0664C174.615 53.8903 174.953 53.8023 175.328 53.8023C175.68 53.8023 175.99 53.8821 176.26 54.0416C176.535 54.2011 176.75 54.4239 176.904 54.71C177.063 54.9906 177.143 55.3151 177.143 55.6837C177.143 55.7277 177.14 55.78 177.135 55.8405C177.129 55.8955 177.118 55.9615 177.102 56.0386H173.743V55.5434H176.788L176.582 55.725C176.587 55.4389 176.538 55.1941 176.433 54.9906C176.334 54.7815 176.188 54.622 175.996 54.512C175.809 54.3964 175.581 54.3387 175.311 54.3387C175.03 54.3387 174.786 54.3992 174.577 54.5202C174.368 54.6412 174.203 54.8118 174.081 55.0318C173.966 55.2464 173.908 55.5022 173.908 55.7993C173.908 56.0963 173.969 56.3576 174.09 56.5832C174.216 56.8087 174.39 56.9848 174.61 57.1113C174.835 57.2378 175.094 57.3011 175.385 57.3011C175.622 57.3011 175.839 57.2598 176.037 57.1773C176.235 57.0893 176.403 56.96 176.541 56.7895L176.912 57.1691C176.73 57.3836 176.505 57.5514 176.235 57.6724C175.971 57.788 175.685 57.8457 175.377 57.8457Z" fill="#DBB27A"/>
<path d="M178.027 57.7632V53.8848H178.604V57.7632H178.027ZM178.604 55.5022L178.365 55.3949C178.365 54.9053 178.483 54.5175 178.72 54.2314C178.962 53.9453 179.292 53.8023 179.71 53.8023C179.903 53.8023 180.079 53.8381 180.238 53.9096C180.398 53.9756 180.546 54.0829 180.684 54.2314L180.304 54.6357C180.211 54.5312 180.106 54.4569 179.991 54.4129C179.881 54.3689 179.754 54.3469 179.611 54.3469C179.314 54.3469 179.072 54.4459 178.885 54.644C178.698 54.8365 178.604 55.1226 178.604 55.5022Z" fill="#DBB27A"/>
<path d="M181.298 57.7632V53.8848H181.884V57.7632H181.298ZM181.587 53.0431C181.477 53.0431 181.384 53.0046 181.307 52.9276C181.23 52.8451 181.191 52.7488 181.191 52.6388C181.191 52.5233 181.23 52.427 181.307 52.35C181.384 52.2729 181.477 52.2344 181.587 52.2344C181.708 52.2344 181.804 52.2729 181.876 52.35C181.953 52.427 181.992 52.5233 181.992 52.6388C181.992 52.7488 181.953 52.8451 181.876 52.9276C181.804 53.0046 181.708 53.0431 181.587 53.0431Z" fill="#DBB27A"/>
<path d="M184.408 57.7632L182.618 53.8848H183.261L184.771 57.2763H184.408L185.927 53.8848H186.554L184.747 57.7632H184.408Z" fill="#DBB27A"/>
<path d="M188.899 57.8457C188.509 57.8457 188.159 57.7577 187.851 57.5817C187.543 57.4056 187.298 57.1636 187.117 56.8555C186.941 56.5474 186.853 56.2008 186.853 55.8158C186.853 55.4362 186.941 55.0951 187.117 54.7925C187.293 54.4845 187.532 54.2424 187.835 54.0664C188.137 53.8903 188.476 53.8023 188.85 53.8023C189.202 53.8023 189.513 53.8821 189.782 54.0416C190.057 54.2011 190.272 54.4239 190.426 54.71C190.585 54.9906 190.665 55.3151 190.665 55.6837C190.665 55.7277 190.662 55.78 190.657 55.8405C190.651 55.8955 190.64 55.9615 190.624 56.0386H187.265V55.5434H190.31L190.104 55.725C190.109 55.4389 190.06 55.1941 189.955 54.9906C189.856 54.7815 189.711 54.622 189.518 54.512C189.331 54.3964 189.103 54.3387 188.833 54.3387C188.553 54.3387 188.308 54.3992 188.099 54.5202C187.89 54.6412 187.725 54.8118 187.604 55.0318C187.488 55.2464 187.43 55.5022 187.43 55.7993C187.43 56.0963 187.491 56.3576 187.612 56.5832C187.738 56.8087 187.912 56.9848 188.132 57.1113C188.357 57.2378 188.616 57.3011 188.907 57.3011C189.144 57.3011 189.361 57.2598 189.559 57.1773C189.757 57.0893 189.925 56.96 190.063 56.7895L190.434 57.1691C190.252 57.3836 190.027 57.5514 189.757 57.6724C189.493 57.788 189.207 57.8457 188.899 57.8457Z" fill="#DBB27A"/>
<path d="M193.199 57.8457C192.842 57.8457 192.52 57.7577 192.234 57.5817C191.948 57.4056 191.719 57.1663 191.549 56.8638C191.384 56.5557 191.301 56.2118 191.301 55.8323C191.301 55.4472 191.384 55.1033 191.549 54.8008C191.719 54.4927 191.948 54.2507 192.234 54.0746C192.52 53.8931 192.842 53.8023 193.199 53.8023C193.491 53.8023 193.755 53.8601 193.991 53.9756C194.228 54.0911 194.423 54.2562 194.577 54.4707C194.737 54.6798 194.83 54.9273 194.858 55.2134V56.4264C194.825 56.707 194.731 56.9545 194.577 57.1691C194.429 57.3781 194.236 57.5432 194 57.6642C193.763 57.7852 193.496 57.8457 193.199 57.8457ZM193.298 57.2928C193.568 57.2928 193.804 57.2323 194.008 57.1113C194.211 56.9848 194.371 56.8115 194.486 56.5914C194.602 56.3659 194.66 56.1101 194.66 55.824C194.66 55.5324 194.599 55.2766 194.478 55.0566C194.363 54.8365 194.203 54.6632 194 54.5367C193.796 54.4102 193.559 54.3469 193.29 54.3469C193.02 54.3469 192.781 54.4102 192.572 54.5367C192.363 54.6632 192.198 54.8393 192.077 55.0648C191.961 55.2849 191.904 55.5379 191.904 55.824C191.904 56.1101 191.961 56.3659 192.077 56.5914C192.198 56.8115 192.363 56.9848 192.572 57.1113C192.787 57.2323 193.029 57.2928 193.298 57.2928ZM195.204 57.7632H194.627V56.7235L194.742 55.7662L194.627 54.8338V51.9209H195.204V57.7632Z" fill="#DBB27A"/>
<path d="M199.799 57.8457C199.441 57.8457 199.12 57.7577 198.834 57.5817C198.547 57.4056 198.319 57.1663 198.149 56.8638C197.984 56.5557 197.901 56.2118 197.901 55.8323C197.901 55.4472 197.984 55.1033 198.149 54.8008C198.319 54.4927 198.547 54.2507 198.834 54.0746C199.12 53.8931 199.441 53.8023 199.799 53.8023C200.091 53.8023 200.355 53.8601 200.591 53.9756C200.828 54.0911 201.023 54.2562 201.177 54.4707C201.337 54.6798 201.43 54.9273 201.458 55.2134V56.4264C201.425 56.707 201.331 56.9545 201.177 57.1691C201.029 57.3781 200.836 57.5432 200.599 57.6642C200.363 57.7852 200.096 57.8457 199.799 57.8457ZM199.898 57.2928C200.168 57.2928 200.404 57.2323 200.608 57.1113C200.811 56.9848 200.971 56.8115 201.086 56.5914C201.202 56.3659 201.26 56.1101 201.26 55.824C201.26 55.5324 201.199 55.2766 201.078 55.0566C200.963 54.8365 200.803 54.6632 200.599 54.5367C200.396 54.4102 200.159 54.3469 199.89 54.3469C199.62 54.3469 199.381 54.4102 199.172 54.5367C198.963 54.6632 198.798 54.8393 198.677 55.0648C198.561 55.2849 198.503 55.5379 198.503 55.824C198.503 56.1101 198.561 56.3659 198.677 56.5914C198.798 56.8115 198.963 56.9848 199.172 57.1113C199.386 57.2323 199.628 57.2928 199.898 57.2928ZM201.804 57.7632H201.227V56.7235L201.342 55.7662L201.227 54.8338V51.9209H201.804V57.7632Z" fill="#DBB27A"/>
<path d="M204.766 57.8457C204.376 57.8457 204.026 57.7577 203.718 57.5817C203.41 57.4056 203.165 57.1636 202.984 56.8555C202.808 56.5474 202.72 56.2008 202.72 55.8158C202.72 55.4362 202.808 55.0951 202.984 54.7925C203.16 54.4845 203.399 54.2424 203.702 54.0664C204.004 53.8903 204.343 53.8023 204.717 53.8023C205.069 53.8023 205.38 53.8821 205.649 54.0416C205.924 54.2011 206.139 54.4239 206.293 54.71C206.452 54.9906 206.532 55.3151 206.532 55.6837C206.532 55.7277 206.529 55.78 206.524 55.8405C206.518 55.8955 206.507 55.9615 206.491 56.0386H203.132V55.5434H206.177L205.971 55.725C205.977 55.4389 205.927 55.1941 205.823 54.9906C205.724 54.7815 205.578 54.622 205.385 54.512C205.198 54.3964 204.97 54.3387 204.7 54.3387C204.42 54.3387 204.175 54.3992 203.966 54.5202C203.757 54.6412 203.592 54.8118 203.471 55.0318C203.355 55.2464 203.298 55.5022 203.298 55.7993C203.298 56.0963 203.358 56.3576 203.479 56.5832C203.606 56.8087 203.779 56.9848 203.999 57.1113C204.224 57.2378 204.483 57.3011 204.775 57.3011C205.011 57.3011 205.228 57.2598 205.426 57.1773C205.625 57.0893 205.792 56.96 205.93 56.7895L206.301 57.1691C206.12 57.3836 205.894 57.5514 205.625 57.6724C205.36 57.788 205.074 57.8457 204.766 57.8457Z" fill="#DBB27A"/>
<path d="M208.604 57.8457C208.395 57.8457 208.194 57.8182 208.002 57.7632C207.809 57.7027 207.633 57.6202 207.474 57.5156C207.32 57.4111 207.185 57.2873 207.069 57.1443L207.441 56.7647C207.595 56.9518 207.768 57.0921 207.961 57.1856C208.159 57.2736 208.379 57.3176 208.621 57.3176C208.879 57.3176 209.08 57.2681 209.223 57.1691C209.372 57.07 209.446 56.9325 209.446 56.7565C209.446 56.5914 209.394 56.4622 209.289 56.3686C209.185 56.2751 209.05 56.2008 208.885 56.1458C208.725 56.0908 208.555 56.0386 208.373 55.989C208.192 55.934 208.018 55.868 207.853 55.791C207.688 55.7085 207.553 55.5957 207.449 55.4527C207.35 55.3096 207.3 55.1226 207.3 54.8915C207.3 54.6715 207.353 54.4817 207.457 54.3222C207.567 54.1571 207.721 54.0306 207.919 53.9426C208.123 53.8491 208.362 53.8023 208.637 53.8023C208.929 53.8023 209.193 53.8546 209.429 53.9591C209.666 54.0636 209.856 54.2176 209.999 54.4212L209.627 54.7925C209.512 54.644 209.366 54.5312 209.19 54.4542C209.02 54.3717 208.827 54.3304 208.612 54.3304C208.365 54.3304 208.175 54.3799 208.043 54.479C207.917 54.5725 207.853 54.6963 207.853 54.8503C207.853 54.9988 207.906 55.1171 208.01 55.2051C208.115 55.2876 208.247 55.3564 208.406 55.4114C208.571 55.4609 208.744 55.5132 208.926 55.5682C209.108 55.6177 209.281 55.6865 209.446 55.7745C209.611 55.857 209.743 55.9725 209.842 56.1211C209.946 56.2641 209.999 56.4594 209.999 56.707C209.999 57.0535 209.872 57.3314 209.619 57.5404C209.372 57.744 209.033 57.8457 208.604 57.8457Z" fill="#DBB27A"/>
<path d="M210.913 57.7632V53.8848H211.499V57.7632H210.913ZM211.202 53.0431C211.092 53.0431 210.999 53.0046 210.922 52.9276C210.845 52.8451 210.806 52.7488 210.806 52.6388C210.806 52.5233 210.845 52.427 210.922 52.35C210.999 52.2729 211.092 52.2344 211.202 52.2344C211.323 52.2344 211.419 52.2729 211.491 52.35C211.568 52.427 211.606 52.5233 211.606 52.6388C211.606 52.7488 211.568 52.8451 211.491 52.9276C211.419 53.0046 211.323 53.0431 211.202 53.0431Z" fill="#DBB27A"/>
<path d="M214.271 59.4796C213.88 59.4796 213.531 59.4053 213.223 59.2568C212.92 59.1138 212.676 58.9102 212.488 58.6462L212.868 58.2666C213.022 58.4756 213.217 58.6379 213.454 58.7534C213.691 58.869 213.968 58.9267 214.287 58.9267C214.728 58.9267 215.077 58.8084 215.335 58.5719C215.599 58.3353 215.731 58.0135 215.731 57.6064V56.6409L215.847 55.758L215.731 54.8833V53.8848H216.309V57.6064C216.309 57.9805 216.224 58.3078 216.053 58.5884C215.883 58.869 215.643 59.0863 215.335 59.2403C215.033 59.3998 214.678 59.4796 214.271 59.4796ZM214.312 57.7219C213.955 57.7219 213.633 57.6367 213.347 57.4661C213.061 57.2956 212.835 57.0618 212.67 56.7647C212.505 56.4677 212.422 56.1321 212.422 55.758C212.422 55.3839 212.502 55.0511 212.662 54.7595C212.827 54.4624 213.052 54.2286 213.338 54.0581C213.625 53.8876 213.946 53.8023 214.304 53.8023C214.606 53.8023 214.876 53.8601 215.113 53.9756C215.355 54.0911 215.547 54.2562 215.69 54.4707C215.839 54.6798 215.93 54.9273 215.963 55.2134V56.3109C215.93 56.5914 215.839 56.839 215.69 57.0535C215.542 57.2626 215.349 57.4276 215.113 57.5487C214.876 57.6642 214.609 57.7219 214.312 57.7219ZM214.419 57.1691C214.689 57.1691 214.923 57.1113 215.121 56.9958C215.324 56.8803 215.481 56.718 215.591 56.5089C215.707 56.2944 215.764 56.0441 215.764 55.758C215.764 55.4774 215.707 55.2326 215.591 55.0236C215.481 54.8145 215.324 54.6495 215.121 54.5285C214.917 54.4074 214.681 54.3469 214.411 54.3469C214.142 54.3469 213.9 54.4074 213.685 54.5285C213.476 54.6495 213.311 54.8145 213.19 55.0236C213.074 55.2326 213.017 55.4774 213.017 55.758C213.017 56.0331 213.077 56.2779 213.198 56.4924C213.319 56.707 213.484 56.8748 213.693 56.9958C213.902 57.1113 214.144 57.1691 214.419 57.1691Z" fill="#DBB27A"/>
<path d="M220.295 57.7632V55.4857C220.295 55.1446 220.193 54.8695 219.99 54.6605C219.792 54.4459 219.528 54.3387 219.198 54.3387C218.972 54.3387 218.774 54.3882 218.603 54.4872C218.433 54.5862 218.298 54.721 218.199 54.8915C218.1 55.0621 218.051 55.2574 218.051 55.4774L217.786 55.3289C217.786 55.0373 217.855 54.776 217.993 54.545C218.13 54.3139 218.315 54.1324 218.546 54.0003C218.782 53.8683 219.052 53.8023 219.354 53.8023C219.651 53.8023 219.915 53.8738 220.146 54.0168C220.378 54.1599 220.556 54.3524 220.683 54.5945C220.815 54.8365 220.881 55.1006 220.881 55.3867V57.7632H220.295ZM217.473 57.7632V53.8848H218.051V57.7632H217.473Z" fill="#DBB27A"/>
<path d="M225.5 57.8457C225.121 57.8457 224.777 57.7577 224.469 57.5817C224.166 57.4001 223.924 57.1553 223.743 56.8472C223.567 56.5392 223.479 56.1953 223.479 55.8158C223.479 55.4362 223.567 55.0951 223.743 54.7925C223.924 54.4845 224.166 54.2424 224.469 54.0664C224.777 53.8903 225.121 53.8023 225.5 53.8023C225.792 53.8023 226.064 53.8573 226.317 53.9673C226.57 54.0774 226.785 54.2314 226.961 54.4294L226.581 54.8173C226.449 54.6687 226.29 54.556 226.103 54.479C225.916 54.3964 225.715 54.3552 225.5 54.3552C225.225 54.3552 224.98 54.4184 224.766 54.545C224.551 54.6715 224.383 54.8448 224.262 55.0648C224.141 55.2794 224.081 55.5297 224.081 55.8158C224.081 56.0963 224.141 56.3494 224.262 56.5749C224.383 56.795 224.551 56.9683 224.766 57.0948C224.98 57.2213 225.225 57.2846 225.5 57.2846C225.72 57.2846 225.924 57.2461 226.111 57.1691C226.298 57.0866 226.457 56.971 226.589 56.8225L226.977 57.2103C226.796 57.4139 226.576 57.5707 226.317 57.6807C226.064 57.7907 225.792 57.8457 225.5 57.8457Z" fill="#DBB27A"/>
<path d="M229.473 57.8457C229.099 57.8457 228.758 57.755 228.45 57.5734C228.147 57.3919 227.905 57.1471 227.723 56.839C227.547 56.5309 227.459 56.1871 227.459 55.8075C227.459 55.4334 227.547 55.0951 227.723 54.7925C227.905 54.49 228.147 54.2507 228.45 54.0746C228.758 53.8931 229.099 53.8023 229.473 53.8023C229.852 53.8023 230.194 53.8903 230.496 54.0664C230.799 54.2424 231.038 54.4845 231.214 54.7925C231.396 55.0951 231.486 55.4334 231.486 55.8075C231.486 56.1926 231.396 56.5392 231.214 56.8472C231.038 57.1498 230.799 57.3919 230.496 57.5734C230.194 57.755 229.852 57.8457 229.473 57.8457ZM229.473 57.2846C229.748 57.2846 229.99 57.2213 230.199 57.0948C230.414 56.9683 230.581 56.7922 230.702 56.5667C230.829 56.3411 230.892 56.0881 230.892 55.8075C230.892 55.5269 230.829 55.2794 230.702 55.0648C230.581 54.8448 230.414 54.6715 230.199 54.545C229.99 54.4184 229.748 54.3552 229.473 54.3552C229.203 54.3552 228.961 54.4184 228.747 54.545C228.532 54.6715 228.364 54.8448 228.243 55.0648C228.122 55.2794 228.062 55.5269 228.062 55.8075C228.062 56.0936 228.122 56.3494 228.243 56.5749C228.364 56.795 228.532 56.9683 228.747 57.0948C228.961 57.2213 229.203 57.2846 229.473 57.2846Z" fill="#DBB27A"/>
<path d="M232.405 57.7632V53.8848H232.983V57.7632H232.405ZM235.071 57.7632V55.3867C235.071 55.0676 234.974 54.8145 234.782 54.6275C234.589 54.4349 234.347 54.3387 234.056 54.3387C233.858 54.3387 233.676 54.3827 233.511 54.4707C233.351 54.5532 233.222 54.6715 233.123 54.8255C233.03 54.9796 232.983 55.1639 232.983 55.3784L232.719 55.2711C232.719 54.9741 232.785 54.7155 232.917 54.4955C233.049 54.2754 233.225 54.1049 233.445 53.9838C233.671 53.8628 233.924 53.8023 234.204 53.8023C234.479 53.8023 234.724 53.8628 234.939 53.9838C235.159 54.1049 235.332 54.2754 235.458 54.4955C235.59 54.7155 235.656 54.9768 235.656 55.2794V57.7632H235.071ZM237.744 57.7632V55.3867C237.744 55.0676 237.648 54.8145 237.455 54.6275C237.263 54.4349 237.018 54.3387 236.721 54.3387C236.528 54.3387 236.35 54.3827 236.185 54.4707C236.025 54.5532 235.896 54.6715 235.797 54.8255C235.703 54.9796 235.656 55.1639 235.656 55.3784L235.31 55.2711C235.326 54.9741 235.403 54.7155 235.541 54.4955C235.684 54.2754 235.868 54.1049 236.094 53.9838C236.325 53.8628 236.578 53.8023 236.853 53.8023C237.128 53.8023 237.376 53.8628 237.596 53.9838C237.821 54.1049 237.997 54.2754 238.124 54.4955C238.256 54.7155 238.322 54.9768 238.322 55.2794V57.7632H237.744Z" fill="#DBB27A"/>
<path d="M241.413 57.8457C241.116 57.8457 240.849 57.7852 240.613 57.6642C240.376 57.5432 240.181 57.3781 240.027 57.1691C239.878 56.9545 239.788 56.707 239.755 56.4264V55.2134C239.788 54.9273 239.881 54.6798 240.035 54.4707C240.189 54.2562 240.385 54.0911 240.621 53.9756C240.863 53.8601 241.127 53.8023 241.413 53.8023C241.771 53.8023 242.093 53.8931 242.379 54.0746C242.665 54.2507 242.89 54.4927 243.055 54.8008C243.226 55.1033 243.311 55.4472 243.311 55.8323C243.311 56.2118 243.229 56.5529 243.064 56.8555C242.899 57.1581 242.67 57.4001 242.379 57.5817C242.093 57.7577 241.771 57.8457 241.413 57.8457ZM241.314 57.2928C241.589 57.2928 241.831 57.2323 242.04 57.1113C242.249 56.9848 242.412 56.8115 242.527 56.5914C242.648 56.3659 242.709 56.1101 242.709 55.824C242.709 55.5324 242.648 55.2766 242.527 55.0566C242.412 54.8365 242.249 54.6632 242.04 54.5367C241.831 54.4102 241.592 54.3469 241.323 54.3469C241.053 54.3469 240.814 54.4102 240.605 54.5367C240.401 54.6632 240.242 54.8365 240.126 55.0566C240.01 55.2766 239.953 55.5324 239.953 55.824C239.953 56.1101 240.01 56.3659 240.126 56.5914C240.242 56.8115 240.401 56.9848 240.605 57.1113C240.808 57.2323 241.045 57.2928 241.314 57.2928ZM239.408 59.3971V53.8848H239.986V54.875L239.87 55.8158L239.986 56.7647V59.3971H239.408Z" fill="#DBB27A"/>
<path d="M245.919 57.8457C245.55 57.8457 245.22 57.7577 244.928 57.5817C244.637 57.4001 244.406 57.1581 244.235 56.8555C244.07 56.5529 243.988 56.2118 243.988 55.8323C243.988 55.4472 244.07 55.1033 244.235 54.8008C244.406 54.4927 244.637 54.2507 244.928 54.0746C245.22 53.8931 245.547 53.8023 245.91 53.8023C246.207 53.8023 246.471 53.8628 246.702 53.9838C246.939 54.0994 247.129 54.2644 247.272 54.479C247.42 54.688 247.511 54.9328 247.544 55.2134V56.4264C247.511 56.707 247.42 56.9545 247.272 57.1691C247.129 57.3836 246.939 57.5514 246.702 57.6724C246.471 57.788 246.21 57.8457 245.919 57.8457ZM246.009 57.2928C246.411 57.2928 246.733 57.1581 246.975 56.8885C247.222 56.6189 247.346 56.2641 247.346 55.824C247.346 55.5324 247.288 55.2766 247.173 55.0566C247.063 54.831 246.906 54.6577 246.702 54.5367C246.504 54.4102 246.271 54.3469 246.001 54.3469C245.726 54.3469 245.481 54.4102 245.267 54.5367C245.058 54.6632 244.89 54.8393 244.763 55.0648C244.642 55.2849 244.582 55.5379 244.582 55.824C244.582 56.1101 244.642 56.3631 244.763 56.5832C244.89 56.8032 245.06 56.9765 245.275 57.1031C245.489 57.2296 245.734 57.2928 246.009 57.2928ZM247.313 57.7632V56.7235L247.429 55.7662L247.313 54.8338V53.8848H247.891V57.7632H247.313Z" fill="#DBB27A"/>
<path d="M251.884 57.7632V55.4857C251.884 55.1446 251.783 54.8695 251.579 54.6605C251.381 54.4459 251.117 54.3387 250.787 54.3387C250.561 54.3387 250.363 54.3882 250.193 54.4872C250.022 54.5862 249.887 54.721 249.788 54.8915C249.689 55.0621 249.64 55.2574 249.64 55.4774L249.376 55.3289C249.376 55.0373 249.444 54.776 249.582 54.545C249.72 54.3139 249.904 54.1324 250.135 54.0003C250.371 53.8683 250.641 53.8023 250.944 53.8023C251.241 53.8023 251.505 53.8738 251.736 54.0168C251.967 54.1599 252.146 54.3524 252.272 54.5945C252.404 54.8365 252.47 55.1006 252.47 55.3867V57.7632H251.884ZM249.062 57.7632V53.8848H249.64V57.7632H249.062Z" fill="#DBB27A"/>
<path d="M254.846 57.7797L253.146 53.8848H253.782L255.152 57.1361H254.912L256.356 53.8848H257L255.176 57.7797H254.846ZM253.79 59.3971L254.855 57.1938L255.176 57.7797L254.425 59.3971H253.79Z" fill="#DBB27A"/>
<path d="M3.96641 57.8457C3.69685 57.8457 3.44929 57.7907 3.22374 57.6807C2.99819 57.5652 2.81389 57.4139 2.67086 57.2268C2.52783 57.0343 2.44531 56.8197 2.4233 56.5832V54.8915C2.44531 54.655 2.52783 54.4459 2.67086 54.2644C2.81389 54.0774 2.99819 53.9316 3.22374 53.8271C3.44929 53.7225 3.69685 53.6703 3.96641 53.6703C4.34599 53.6703 4.68157 53.761 4.97314 53.9426C5.27021 54.1241 5.50126 54.3717 5.6663 54.6853C5.83684 54.9988 5.92211 55.3564 5.92211 55.758C5.92211 56.1596 5.83684 56.5172 5.6663 56.8307C5.50126 57.1443 5.27021 57.3919 4.97314 57.5734C4.68157 57.755 4.34599 57.8457 3.96641 57.8457ZM3.74361 56.707C3.91965 56.707 4.07368 56.6657 4.20571 56.5832C4.34324 56.5007 4.45052 56.3879 4.52754 56.2449C4.60455 56.1018 4.64306 55.9395 4.64306 55.758C4.64306 55.571 4.60455 55.4059 4.52754 55.2629C4.45052 55.1199 4.34324 55.0098 4.20571 54.9328C4.07368 54.8503 3.91965 54.809 3.74361 54.809C3.56757 54.809 3.41078 54.8503 3.27325 54.9328C3.13572 55.0098 3.02844 55.1199 2.95143 55.2629C2.87991 55.4059 2.84415 55.571 2.84415 55.758C2.84415 55.945 2.88266 56.1101 2.95968 56.2531C3.0367 56.3961 3.14122 56.5089 3.27325 56.5914C3.41078 56.6685 3.56757 56.707 3.74361 56.707ZM1.65588 57.7632V51.7723H2.91842V54.7348L2.71212 55.7085L2.90191 56.6822V57.7632H1.65588Z" fill="#DBB27A"/>
<path d="M6.5635 57.7632V53.7528H7.82603V57.7632H6.5635ZM7.82603 55.56L7.29791 55.1474C7.40244 54.6798 7.57848 54.3167 7.82603 54.0581C8.07359 53.7995 8.41742 53.6703 8.85752 53.6703C9.05006 53.6703 9.21785 53.7005 9.36089 53.761C9.50942 53.8161 9.6387 53.9041 9.74872 54.0251L8.9978 54.9741C8.94279 54.9136 8.87402 54.8668 8.7915 54.8338C8.70899 54.8008 8.61547 54.7843 8.51094 54.7843C8.30189 54.7843 8.1341 54.8503 8.00758 54.9823C7.88655 55.1088 7.82603 55.3014 7.82603 55.56Z" fill="#DBB27A"/>
<path d="M11.6474 57.8457C11.2788 57.8457 10.9487 57.755 10.6571 57.5734C10.3711 57.3919 10.1428 57.1443 9.97223 56.8307C9.8072 56.5172 9.72468 56.1596 9.72468 55.758C9.72468 55.3564 9.8072 54.9988 9.97223 54.6853C10.1428 54.3717 10.3711 54.1241 10.6571 53.9426C10.9487 53.761 11.2788 53.6703 11.6474 53.6703C11.9169 53.6703 12.159 53.7225 12.3735 53.8271C12.5936 53.9316 12.7724 54.0774 12.9099 54.2644C13.0474 54.4459 13.1245 54.655 13.141 54.8915V56.6244C13.1245 56.861 13.0474 57.0728 12.9099 57.2598C12.7779 57.4414 12.6018 57.5844 12.3818 57.6889C12.1617 57.7935 11.9169 57.8457 11.6474 57.8457ZM11.9032 56.707C12.1727 56.707 12.39 56.6189 12.5551 56.4429C12.7201 56.2614 12.8026 56.0331 12.8026 55.758C12.8026 55.571 12.7641 55.4059 12.6871 55.2629C12.6156 55.1199 12.5111 55.0098 12.3735 54.9328C12.2415 54.8503 12.0875 54.809 11.9114 54.809C11.7354 54.809 11.5786 54.8503 11.4411 54.9328C11.309 55.0098 11.2018 55.1199 11.1192 55.2629C11.0422 55.4059 11.0037 55.571 11.0037 55.758C11.0037 55.9395 11.0422 56.1018 11.1192 56.2449C11.1963 56.3879 11.3035 56.5007 11.4411 56.5832C11.5786 56.6657 11.7326 56.707 11.9032 56.707ZM12.7531 57.7632V56.6822L12.9429 55.7085L12.7531 54.7348V53.7528H13.9909V57.7632H12.7531Z" fill="#DBB27A"/>
<path d="M17.5287 57.7632V55.4774C17.5287 55.2684 17.4627 55.1006 17.3307 54.9741C17.2041 54.842 17.0418 54.776 16.8438 54.776C16.7063 54.776 16.5852 54.8063 16.4807 54.8668C16.3762 54.9218 16.2937 55.0043 16.2332 55.1143C16.1726 55.2189 16.1424 55.3399 16.1424 55.4774L15.6555 55.2381C15.6555 54.9246 15.7243 54.6495 15.8618 54.4129C15.9994 54.1764 16.1892 53.9948 16.4312 53.8683C16.6788 53.7363 16.9566 53.6703 17.2646 53.6703C17.5617 53.6703 17.823 53.7418 18.0486 53.8848C18.2796 54.0224 18.4612 54.2066 18.5932 54.4377C18.7252 54.6688 18.7912 54.9218 18.7912 55.1969V57.7632H17.5287ZM14.8799 57.7632V53.7528H16.1424V57.7632H14.8799Z" fill="#DBB27A"/>
<path d="M21.3103 57.8457C20.9307 57.8457 20.5923 57.755 20.2953 57.5734C20.0037 57.3919 19.7727 57.1443 19.6021 56.8307C19.4371 56.5172 19.3546 56.1596 19.3546 55.758C19.3546 55.3564 19.4371 54.9988 19.6021 54.6853C19.7727 54.3717 20.0037 54.1241 20.2953 53.9426C20.5923 53.761 20.9307 53.6703 21.3103 53.6703C21.5853 53.6703 21.8329 53.7225 22.0529 53.8271C22.2785 53.9316 22.4628 54.0774 22.6058 54.2644C22.7543 54.4459 22.8369 54.655 22.8534 54.8915V56.5832C22.8369 56.8197 22.7571 57.0343 22.6141 57.2268C22.471 57.4139 22.2867 57.5652 22.0612 57.6807C21.8356 57.7907 21.5853 57.8457 21.3103 57.8457ZM21.5331 56.707C21.7146 56.707 21.8714 56.6685 22.0034 56.5914C22.1355 56.5089 22.24 56.3961 22.317 56.2531C22.394 56.1101 22.4325 55.945 22.4325 55.758C22.4325 55.571 22.394 55.4087 22.317 55.2711C22.2455 55.1281 22.141 55.0153 22.0034 54.9328C21.8714 54.8503 21.7174 54.809 21.5413 54.809C21.3653 54.809 21.2085 54.8503 21.071 54.9328C20.9389 55.0153 20.8317 55.1281 20.7491 55.2711C20.6721 55.4142 20.6336 55.5765 20.6336 55.758C20.6336 55.9395 20.6721 56.1018 20.7491 56.2449C20.8262 56.3879 20.9334 56.5007 21.071 56.5832C21.2085 56.6657 21.3625 56.707 21.5331 56.707ZM23.6208 57.7632H22.383V56.6822L22.5728 55.7085L22.3583 54.7348V51.7723H23.6208V57.7632Z" fill="#DBB27A"/>
<path d="M24.5097 57.7632V53.7528H25.7723V57.7632H24.5097ZM25.1451 53.1999C24.9471 53.1999 24.7821 53.1339 24.65 53.0019C24.5235 52.8643 24.4602 52.6993 24.4602 52.5068C24.4602 52.3087 24.5235 52.1437 24.65 52.0116C24.7821 51.8796 24.9471 51.8136 25.1451 51.8136C25.3432 51.8136 25.5055 51.8796 25.632 52.0116C25.7585 52.1437 25.8218 52.3087 25.8218 52.5068C25.8218 52.6993 25.7585 52.8643 25.632 53.0019C25.5055 53.1339 25.3432 53.1999 25.1451 53.1999Z" fill="#DBB27A"/>
<path d="M29.3102 57.7632V55.4774C29.3102 55.2684 29.2442 55.1006 29.1122 54.9741C28.9856 54.842 28.8233 54.776 28.6253 54.776C28.4878 54.776 28.3667 54.8063 28.2622 54.8668C28.1577 54.9218 28.0752 55.0043 28.0147 55.1143C27.9542 55.2189 27.9239 55.3399 27.9239 55.4774L27.437 55.2381C27.437 54.9246 27.5058 54.6495 27.6433 54.4129C27.7809 54.1764 27.9707 53.9948 28.2127 53.8683C28.4603 53.7363 28.7381 53.6703 29.0462 53.6703C29.3432 53.6703 29.6045 53.7418 29.8301 53.8848C30.0611 54.0224 30.2427 54.2066 30.3747 54.4377C30.5067 54.6688 30.5727 54.9218 30.5727 55.1969V57.7632H29.3102ZM26.6614 57.7632V53.7528H27.9239V57.7632H26.6614Z" fill="#DBB27A"/>
<path d="M33.0835 59.5621C32.6434 59.5621 32.2556 59.4851 31.92 59.3311C31.5899 59.1825 31.3286 58.9707 31.1361 58.6957L31.9117 57.92C32.0548 58.0905 32.2143 58.2198 32.3904 58.3078C32.5719 58.3959 32.7892 58.4399 33.0423 58.4399C33.3558 58.4399 33.6006 58.3628 33.7767 58.2088C33.9582 58.0548 34.049 57.8375 34.049 57.5569V56.5337L34.2635 55.659L34.0737 54.7843V53.7528H35.3115V57.5239C35.3115 57.9365 35.2153 58.2941 35.0227 58.5966C34.8302 58.8992 34.5661 59.1358 34.2305 59.3063C33.895 59.4768 33.5126 59.5621 33.0835 59.5621ZM33.0258 57.6394C32.6572 57.6394 32.3298 57.5514 32.0438 57.3754C31.7577 57.1993 31.5322 56.96 31.3671 56.6575C31.2021 56.3549 31.1196 56.0193 31.1196 55.6507C31.1196 55.2766 31.2021 54.9411 31.3671 54.644C31.5322 54.3414 31.7577 54.1049 32.0438 53.9343C32.3298 53.7583 32.6572 53.6703 33.0258 53.6703C33.3008 53.6703 33.5456 53.7225 33.7602 53.8271C33.9802 53.9261 34.1563 54.0691 34.2883 54.2562C34.4258 54.4377 34.5028 54.6495 34.5193 54.8915V56.4181C34.5028 56.6547 34.4258 56.8665 34.2883 57.0535C34.1563 57.2351 33.9802 57.3781 33.7602 57.4826C33.5401 57.5872 33.2953 57.6394 33.0258 57.6394ZM33.2651 56.5172C33.4411 56.5172 33.5924 56.4787 33.7189 56.4016C33.8509 56.3246 33.95 56.2229 34.016 56.0963C34.0875 55.9643 34.1233 55.8158 34.1233 55.6507C34.1233 55.4857 34.0875 55.3372 34.016 55.2051C33.95 55.0731 33.8509 54.9686 33.7189 54.8915C33.5924 54.8145 33.4411 54.776 33.2651 54.776C33.0945 54.776 32.9432 54.8145 32.8112 54.8915C32.6792 54.9686 32.5774 55.0731 32.5059 55.2051C32.4344 55.3372 32.3986 55.4857 32.3986 55.6507C32.3986 55.8048 32.4344 55.9505 32.5059 56.0881C32.5774 56.2201 32.6764 56.3246 32.8029 56.4016C32.935 56.4787 33.089 56.5172 33.2651 56.5172Z" fill="#DBB27A"/>
<path d="M36.2026 57.7632V51.7723H37.4651V57.7632H36.2026Z" fill="#DBB27A"/>
<path d="M38.3542 57.7632V53.7528H39.6168V57.7632H38.3542ZM38.9896 53.1999C38.7916 53.1999 38.6265 53.1339 38.4945 53.0019C38.368 52.8643 38.3047 52.6993 38.3047 52.5068C38.3047 52.3087 38.368 52.1437 38.4945 52.0116C38.6265 51.8796 38.7916 51.8136 38.9896 51.8136C39.1877 51.8136 39.3499 51.8796 39.4765 52.0116C39.603 52.1437 39.6663 52.3087 39.6663 52.5068C39.6663 52.6993 39.603 52.8643 39.4765 53.0019C39.3499 53.1339 39.1877 53.1999 38.9896 53.1999Z" fill="#DBB27A"/>
<path d="M40.25 57.0205L42.2635 54.4872H43.7983L41.7849 57.0205H40.25ZM40.25 57.7632V57.0205L41.1495 56.707H43.7488V57.7632H40.25ZM40.3986 54.809V53.7528H43.7983V54.4872L42.9071 54.809H40.3986Z" fill="#DBB27A"/>
<path d="M46.3705 57.854C45.9359 57.854 45.548 57.766 45.207 57.5899C44.8714 57.4084 44.6073 57.1581 44.4148 56.839C44.2222 56.5199 44.126 56.1596 44.126 55.758C44.126 55.3564 44.2195 54.9988 44.4065 54.6853C44.5991 54.3662 44.8576 54.1159 45.1822 53.9343C45.5068 53.7528 45.8726 53.662 46.2797 53.662C46.6758 53.662 47.0251 53.7473 47.3277 53.9178C47.6303 54.0884 47.8668 54.3249 48.0374 54.6275C48.2134 54.9301 48.3014 55.2766 48.3014 55.6672C48.3014 55.7387 48.2959 55.8158 48.2849 55.8983C48.2794 55.9753 48.2657 56.0661 48.2437 56.1706L44.7861 56.1788V55.3124L47.7073 55.3041L47.1627 55.6672C47.1572 55.4362 47.1214 55.2464 47.0554 55.0978C46.9894 54.9438 46.8903 54.8283 46.7583 54.7513C46.6318 54.6688 46.475 54.6275 46.288 54.6275C46.0899 54.6275 45.9166 54.6743 45.7681 54.7678C45.6251 54.8558 45.5123 54.9823 45.4298 55.1474C45.3527 55.3124 45.3142 55.5132 45.3142 55.7497C45.3142 55.9863 45.3555 56.1898 45.438 56.3604C45.526 56.5254 45.6471 56.6547 45.8011 56.7482C45.9606 56.8362 46.1477 56.8803 46.3622 56.8803C46.5603 56.8803 46.7391 56.8472 46.8986 56.7812C47.0581 56.7097 47.1984 56.6052 47.3194 56.4677L48.0126 57.1608C47.8146 57.3919 47.5753 57.5652 47.2947 57.6807C47.0141 57.7962 46.7061 57.854 46.3705 57.854Z" fill="#DBB27A"/>
</svg>
