<svg width="112" height="22" viewBox="0 0 112 22" fill="none" xmlns="http://www.w3.org/2000/svg">
<path d="M0.771462 18.3707V17.2195H6.24402C7.43336 17.2195 8.38161 16.8929 9.08878 16.2397C9.81203 15.5702 10.1737 14.7129 10.1737 13.6678C10.1737 12.982 10.0129 12.3778 9.69149 11.8552C9.38612 11.3163 8.95217 10.8999 8.38965 10.606C7.84319 10.2958 7.20031 10.1406 6.46099 10.1406H0.771462V9.03838H6.26813C7.23245 9.03838 7.99588 8.76078 8.5584 8.20558C9.137 7.65037 9.4263 6.89105 9.4263 5.92761C9.4263 4.94784 9.11289 4.18852 8.48608 3.64964C7.85927 3.09444 7.02352 2.81684 5.97883 2.81684H0.771462V1.66561H5.97883C6.9753 1.66561 7.81909 1.84523 8.51019 2.20448C9.21736 2.5474 9.75578 3.02912 10.1254 3.64964C10.5112 4.27017 10.704 4.99683 10.704 5.82963C10.704 6.77674 10.4549 7.59322 9.95668 8.27906C9.47452 8.9649 8.77538 9.46295 7.85927 9.77321L8.00392 9.33231C9.08075 9.64257 9.92453 10.1896 10.5353 10.9734C11.1621 11.7409 11.4755 12.6635 11.4755 13.7413C11.4755 14.6394 11.2585 15.4395 10.8246 16.1417C10.3906 16.8439 9.77185 17.3909 8.96824 17.7828C8.18071 18.1747 7.23245 18.3707 6.12348 18.3707H0.771462ZM0 18.3707V1.66561H1.27773V18.3707H0Z" fill="white"/>
<path d="M14.175 18.3707V6.98086H15.4046V18.3707H14.175ZM15.4046 11.5613L14.8019 11.3408C14.8019 9.88752 15.1635 8.76078 15.8867 7.96063C16.61 7.14416 17.5582 6.73592 18.7315 6.73592C19.2779 6.73592 19.7842 6.8339 20.2503 7.02985C20.7325 7.22581 21.1745 7.54423 21.5763 7.98513L20.7566 8.86692C20.4512 8.524 20.1217 8.27906 19.7681 8.13209C19.4146 7.98513 18.9967 7.91165 18.5145 7.91165C17.5984 7.91165 16.8511 8.23007 16.2725 8.86692C15.6939 9.48744 15.4046 10.3856 15.4046 11.5613Z" fill="white"/>
<path d="M27.6526 18.6156C26.5758 18.6156 25.6035 18.3544 24.7356 17.8318C23.8837 17.3093 23.2087 16.6071 22.7105 15.7253C22.2122 14.8272 21.9631 13.8148 21.9631 12.688C21.9631 11.5776 22.2122 10.5734 22.7105 9.67523C23.2087 8.77711 23.8837 8.06678 24.7356 7.54423C25.5874 7.00536 26.5437 6.73592 27.6044 6.73592C28.4723 6.73592 29.2438 6.90738 29.9188 7.2503C30.6099 7.57689 31.1724 8.04228 31.6064 8.64647C32.0564 9.25067 32.3457 9.96916 32.4743 10.802V14.5251C32.3296 15.3579 32.0323 16.0846 31.5823 16.7051C31.1483 17.3093 30.5938 17.7828 29.9188 18.1258C29.2599 18.4523 28.5045 18.6156 27.6526 18.6156ZM27.8214 17.4399C29.1072 17.4399 30.1278 17.0072 30.8831 16.1417C31.6546 15.2599 32.0403 14.1087 32.0403 12.688C32.0403 11.7246 31.8635 10.8918 31.51 10.1896C31.1724 9.47111 30.6822 8.91591 30.0394 8.524C29.3965 8.11577 28.6491 7.91165 27.7973 7.91165C26.9133 7.91165 26.1258 8.11577 25.4347 8.524C24.7597 8.93224 24.2212 9.49561 23.8194 10.2141C23.4337 10.9326 23.2409 11.7491 23.2409 12.6635C23.2409 13.5943 23.4337 14.419 23.8194 15.1375C24.2212 15.856 24.7677 16.4193 25.4588 16.8276C26.1499 17.2358 26.9374 17.4399 27.8214 17.4399ZM31.9921 18.3707V15.3089L32.2573 12.5166L31.9921 9.74871V6.98086H33.2216V18.3707H31.9921Z" fill="white"/>
<path d="M44.7915 18.3707V11.6103C44.7915 10.4999 44.47 9.60175 43.8272 8.91591C43.1843 8.23007 42.3325 7.88715 41.2717 7.88715C40.5484 7.88715 39.9056 8.05045 39.343 8.37704C38.7966 8.6873 38.3626 9.12003 38.0412 9.67523C37.7358 10.2304 37.5831 10.8755 37.5831 11.6103L36.9563 11.2429C36.9563 10.3774 37.1572 9.60991 37.559 8.9404C37.9608 8.25457 38.5073 7.71569 39.1984 7.32378C39.8895 6.93187 40.677 6.73592 41.561 6.73592C42.445 6.73592 43.2164 6.9482 43.8754 7.37277C44.5504 7.78101 45.0728 8.34438 45.4424 9.06288C45.8121 9.78137 45.9969 10.5815 45.9969 11.4633V18.3707H44.7915ZM36.3536 18.3707V6.98086H37.5831V18.3707H36.3536Z" fill="white"/>
<path d="M60.3974 18.6156C59.3366 18.6156 58.3884 18.3544 57.5526 17.8318C56.7169 17.3093 56.0579 16.6071 55.5758 15.7253C55.0936 14.8272 54.8525 13.8148 54.8525 12.688C54.8525 11.5613 55.0936 10.5489 55.5758 9.65074C56.0579 8.75262 56.7169 8.04228 57.5526 7.51974C58.3884 6.99719 59.3366 6.73592 60.3974 6.73592C61.2171 6.73592 61.9725 6.89922 62.6636 7.22581C63.3707 7.5524 63.9654 8.02595 64.4476 8.64647C64.9297 9.25067 65.2351 9.96916 65.3637 10.802V14.5251C65.219 15.3416 64.9137 16.0601 64.4476 16.6806C63.9815 17.2848 63.3948 17.7583 62.6877 18.1013C61.9966 18.4442 61.2331 18.6156 60.3974 18.6156ZM60.6144 17.4399C61.4662 17.4399 62.2135 17.2358 62.8564 16.8276C63.4993 16.4193 63.9976 15.8641 64.3511 15.1619C64.7208 14.4434 64.9056 13.6188 64.9056 12.688C64.9056 11.7409 64.7208 10.9163 64.3511 10.2141C63.9815 9.49561 63.4672 8.93224 62.8082 8.524C62.1653 8.11577 61.4099 7.91165 60.542 7.91165C59.6902 7.91165 58.9268 8.11577 58.2518 8.524C57.5928 8.93224 57.0705 9.49561 56.6847 10.2141C56.299 10.9163 56.1061 11.7327 56.1061 12.6635C56.1061 13.5943 56.299 14.419 56.6847 15.1375C57.0705 15.856 57.6008 16.4193 58.2759 16.8276C58.9509 17.2358 59.7304 17.4399 60.6144 17.4399ZM66.0869 18.3707H64.8574V15.3089L65.1467 12.5166L64.8574 9.74871V1.17572H66.0869V18.3707Z" fill="white"/>
<path d="M69.8414 11.1449C69.5521 11.1449 69.3191 11.0632 69.1423 10.8999C68.9655 10.7203 68.8771 10.4835 68.8771 10.1896C68.8771 9.91201 68.9655 9.69156 69.1423 9.52827C69.3191 9.36497 69.5521 9.28332 69.8414 9.28332C70.1468 9.28332 70.3798 9.36497 70.5405 9.52827C70.7013 9.69156 70.7816 9.91201 70.7816 10.1896C70.7816 10.4835 70.7013 10.7203 70.5405 10.8999C70.3798 11.0632 70.1468 11.1449 69.8414 11.1449ZM69.8896 16.2397C70.3557 16.2397 70.7173 16.4193 70.9745 16.7786C71.2477 17.1215 71.3843 17.6195 71.3843 18.2727C71.3843 18.9096 71.2397 19.4974 70.9504 20.0363C70.6771 20.5752 70.2673 21.1141 69.7209 21.6529C69.7048 21.6693 69.6807 21.6774 69.6485 21.6774C69.6003 21.6774 69.5601 21.6529 69.528 21.6039C69.4958 21.5549 69.4958 21.5141 69.528 21.4815C70.3155 20.665 70.7093 19.7015 70.7093 18.5911C70.7093 18.1666 70.6289 17.8318 70.4682 17.5869C70.3557 17.8318 70.1227 17.9543 69.7691 17.9543C69.4958 17.9543 69.2789 17.8808 69.1181 17.7338C68.9735 17.5705 68.9012 17.3583 68.9012 17.097C68.9012 16.5255 69.2307 16.2397 69.8896 16.2397Z" fill="white"/>
<path d="M76.1018 5.1193C75.7964 5.1193 75.5553 5.03765 75.3786 4.87436C75.2178 4.71106 75.1375 4.48245 75.1375 4.18852C75.1375 3.89459 75.2178 3.66597 75.3786 3.50268C75.5553 3.33938 75.7964 3.25774 76.1018 3.25774C76.3911 3.25774 76.6161 3.33938 76.7768 3.50268C76.9376 3.66597 77.0179 3.89459 77.0179 4.18852C77.0179 4.48245 76.9376 4.71106 76.7768 4.87436C76.6161 5.03765 76.3911 5.1193 76.1018 5.1193ZM74.149 17.7583C74.1169 17.7583 74.1008 17.7094 74.1008 17.6114C74.1008 17.5134 74.1169 17.4644 74.149 17.4644C74.6151 17.4644 74.9526 17.4236 75.1616 17.3419C75.3866 17.2603 75.5393 17.1052 75.6196 16.8765C75.7 16.6316 75.7402 16.2642 75.7402 15.7743V11.1449C75.7402 10.5407 75.6759 10.108 75.5473 9.84669C75.4348 9.58542 75.2339 9.45478 74.9446 9.45478C74.6392 9.45478 74.2535 9.57726 73.7874 9.8222H73.7633C73.699 9.8222 73.6508 9.78137 73.6187 9.69973C73.5865 9.61808 73.6026 9.56093 73.6669 9.52827L76.6563 8.1076L76.7527 8.08311C76.7849 8.08311 76.817 8.09943 76.8492 8.13209C76.8974 8.16475 76.9215 8.20558 76.9215 8.25457C76.9215 8.35254 76.9134 8.67913 76.8974 9.23434C76.8813 9.77321 76.8733 10.4019 76.8733 11.1204V15.7743C76.8733 16.2642 76.9054 16.6316 76.9697 16.8765C77.0501 17.1052 77.1947 17.2603 77.4036 17.3419C77.6287 17.4236 77.9742 17.4644 78.4403 17.4644C78.4885 17.4644 78.5126 17.5134 78.5126 17.6114C78.5126 17.7094 78.4885 17.7583 78.4403 17.7583C78.0706 17.7583 77.7813 17.7502 77.5724 17.7338L76.2947 17.7094L75.041 17.7338C74.816 17.7502 74.5187 17.7583 74.149 17.7583Z" fill="white"/>
<path d="M81.7284 9.87119C81.7284 10.4754 81.9133 10.9489 82.2829 11.2919C82.6526 11.6184 83.2151 11.9695 83.9705 12.3451C84.5169 12.6227 84.9509 12.8677 85.2723 13.0799C85.5938 13.2922 85.867 13.5698 86.092 13.9127C86.317 14.2393 86.4295 14.6394 86.4295 15.113C86.4295 15.9294 86.1241 16.6234 85.5134 17.195C84.9187 17.7502 84.0991 18.0278 83.0544 18.0278C82.2026 18.0278 81.4472 17.7747 80.7882 17.2685C80.6918 17.2031 80.6436 17.1052 80.6436 16.9745L80.5953 15.2109C80.5953 15.1619 80.6355 15.1375 80.7159 15.1375C80.8123 15.1211 80.8686 15.1375 80.8846 15.1864C81.19 16.0029 81.5757 16.6071 82.0418 16.999C82.524 17.3746 83.0946 17.5624 83.7535 17.5624C84.3 17.5624 84.7178 17.4399 85.0071 17.195C85.2964 16.95 85.4411 16.5908 85.4411 16.1172C85.4411 15.6437 85.3366 15.2518 85.1277 14.9415C84.9348 14.6149 84.6857 14.3536 84.3803 14.1577C84.091 13.9617 83.6892 13.7413 83.1749 13.4963C82.6445 13.2351 82.2186 13.0065 81.8972 12.8105C81.5918 12.5982 81.3266 12.3206 81.1016 11.9777C80.8927 11.6348 80.7882 11.2102 80.7882 10.704C80.7882 9.83853 81.1096 9.16902 81.7525 8.69546C82.3954 8.22191 83.1508 7.98513 84.0187 7.98513C84.6134 7.98513 85.1839 8.1076 85.7304 8.35254C85.8268 8.40153 85.8831 8.44235 85.8991 8.47501C85.9313 8.50767 85.9474 8.55666 85.9474 8.62198C85.9474 8.93224 85.9393 9.17718 85.9232 9.35681L85.8991 10.3121C85.8991 10.3447 85.8509 10.3611 85.7545 10.3611C85.6581 10.3611 85.6098 10.3447 85.6098 10.3121C85.6098 9.78954 85.3447 9.35681 84.8143 9.01389C84.2839 8.65464 83.7214 8.47501 83.1267 8.47501C82.6927 8.47501 82.3472 8.59748 82.09 8.84243C81.849 9.07104 81.7284 9.41396 81.7284 9.87119Z" fill="white"/>
<path d="M105.352 17.4644C105.4 17.4644 105.424 17.5134 105.424 17.6114C105.424 17.7094 105.4 17.7583 105.352 17.7583C104.982 17.7583 104.693 17.7502 104.484 17.7338L103.206 17.7094L101.953 17.7338C101.728 17.7502 101.43 17.7583 101.061 17.7583C101.028 17.7583 101.012 17.7094 101.012 17.6114C101.012 17.5134 101.028 17.4644 101.061 17.4644C101.527 17.4644 101.864 17.4236 102.073 17.3419C102.298 17.2603 102.451 17.1052 102.531 16.8765C102.612 16.6316 102.652 16.2642 102.652 15.7743V11.7817C102.652 10.7856 102.475 10.0508 102.121 9.57726C101.784 9.1037 101.245 8.86692 100.506 8.86692C100.008 8.86692 99.4935 9.02205 98.9631 9.33231C98.4488 9.62624 97.9747 10.0426 97.5407 10.5815C97.5568 10.6632 97.5649 10.8101 97.5649 11.0224V15.7743C97.5649 16.2642 97.605 16.6316 97.6854 16.8765C97.7658 17.1052 97.9104 17.2603 98.1193 17.3419C98.3444 17.4236 98.6899 17.4644 99.156 17.4644C99.1881 17.4644 99.2042 17.5134 99.2042 17.6114C99.2042 17.7094 99.1881 17.7583 99.156 17.7583C98.7863 17.7583 98.489 17.7502 98.264 17.7338L97.0104 17.7094L95.7326 17.7338C95.5237 17.7502 95.2344 17.7583 94.8647 17.7583C94.8165 17.7583 94.7924 17.7094 94.7924 17.6114C94.7924 17.5134 94.8165 17.4644 94.8647 17.4644C95.3308 17.4644 95.6684 17.4236 95.8773 17.3419C96.0862 17.2603 96.2309 17.1052 96.3112 16.8765C96.3916 16.6316 96.4318 16.2642 96.4318 15.7743V11.7817C96.4318 10.7856 96.255 10.0508 95.9014 9.57726C95.5639 9.1037 95.0335 8.86692 94.3103 8.86692C93.812 8.86692 93.3058 9.01389 92.7914 9.30782C92.2771 9.60175 91.803 10.0182 91.3691 10.557V15.7743C91.3691 16.2642 91.4012 16.6316 91.4655 16.8765C91.5459 17.1052 91.6905 17.2603 91.8994 17.3419C92.1245 17.4236 92.47 17.4644 92.9361 17.4644C92.9843 17.4644 93.0084 17.5134 93.0084 17.6114C93.0084 17.7094 92.9843 17.7583 92.9361 17.7583C92.5664 17.7583 92.2771 17.7502 92.0682 17.7338L90.8146 17.7094L89.5368 17.7338C89.3279 17.7502 89.0386 17.7583 88.6689 17.7583C88.6207 17.7583 88.5966 17.7094 88.5966 17.6114C88.5966 17.5134 88.6207 17.4644 88.6689 17.4644C89.135 17.4644 89.4725 17.4236 89.6815 17.3419C89.8904 17.2603 90.0351 17.1052 90.1154 16.8765C90.1958 16.6316 90.236 16.2642 90.236 15.7743V10.8755C90.236 10.3039 90.1717 9.89568 90.0431 9.65074C89.9145 9.4058 89.6895 9.28332 89.3681 9.28332C89.1109 9.28332 88.6609 9.4058 88.018 9.65074H87.9698C87.9055 9.65074 87.8573 9.61808 87.8252 9.55276C87.8091 9.47111 87.8332 9.41396 87.8975 9.3813L90.5735 8.1076C90.6056 8.09127 90.6458 8.08311 90.694 8.08311C90.8226 8.08311 90.9673 8.2709 91.128 8.64647C91.2887 9.00572 91.3691 9.47111 91.3691 10.0426V10.1406C91.9637 9.4058 92.5504 8.87509 93.129 8.5485C93.7076 8.22191 94.3103 8.05861 94.9371 8.05861C95.6603 8.05861 96.2389 8.2464 96.6729 8.62198C97.1229 8.98123 97.4041 9.5201 97.5166 10.2386C98.1274 9.47111 98.7301 8.91591 99.3248 8.57299C99.9194 8.23007 100.53 8.05861 101.157 8.05861C102.009 8.05861 102.66 8.30355 103.11 8.79344C103.56 9.28332 103.785 10.0263 103.785 11.0224V15.7743C103.785 16.2642 103.817 16.6316 103.881 16.8765C103.962 17.1052 104.106 17.2603 104.315 17.3419C104.54 17.4236 104.886 17.4644 105.352 17.4644Z" fill="white"/>
<path d="M111.928 10.4591C111.108 10.557 110.562 11.0877 110.288 12.0512C110.015 12.9983 109.878 14.2475 109.878 15.7988C109.878 17.2031 109.798 18.2401 109.637 18.9096C109.477 19.5791 109.171 20.0281 108.721 20.2568C108.287 20.5017 107.604 20.6242 106.672 20.6242C106.608 20.6242 106.576 20.5752 106.576 20.4772C106.576 20.3792 106.608 20.3302 106.672 20.3302C107.283 20.3302 107.757 20.1016 108.094 19.6444C108.432 19.2035 108.617 18.5666 108.649 17.7338C108.681 15.7416 108.745 14.3455 108.842 13.5453C108.938 12.7289 109.155 12.0838 109.493 11.6103C109.83 11.1204 110.409 10.6795 111.229 10.2876C110.393 9.91201 109.806 9.49561 109.469 9.03838C109.147 8.56483 108.938 7.92798 108.842 7.12783C108.745 6.31135 108.681 4.89885 108.649 2.89032C108.617 2.05752 108.432 1.42067 108.094 0.979769C107.757 0.522543 107.283 0.29393 106.672 0.29393C106.608 0.29393 106.576 0.244942 106.576 0.146965C106.576 0.0489882 106.608 0 106.672 0C107.588 0 108.263 0.122471 108.697 0.367413C109.131 0.596026 109.437 1.04509 109.613 1.7146C109.79 2.36778 109.878 3.39654 109.878 4.80087C109.878 6.33585 110.015 7.58506 110.288 8.5485C110.562 9.51194 111.108 10.0426 111.928 10.1406C111.976 10.1406 112 10.1978 112 10.3121C112 10.4101 111.976 10.4591 111.928 10.4591Z" fill="white"/>
<path d="M48.4333 10.4591C48.3851 10.4591 48.361 10.4101 48.361 10.3121C48.361 10.1978 48.3851 10.1406 48.4333 10.1406C49.253 10.0426 49.7995 9.51194 50.0727 8.5485C50.3459 7.58506 50.4825 6.33585 50.4825 4.80087C50.4825 3.39654 50.5709 2.36778 50.7477 1.7146C50.9245 1.04509 51.2299 0.596026 51.6638 0.367413C52.0978 0.122471 52.7728 0 53.6889 0C53.7532 0 53.7853 0.0489882 53.7853 0.146965C53.7853 0.244942 53.7532 0.29393 53.6889 0.29393C53.0782 0.29393 52.604 0.522543 52.2665 0.979769C51.929 1.42067 51.7442 2.05752 51.712 2.89032C51.6799 4.89885 51.6156 6.31135 51.5192 7.12783C51.4227 7.92798 51.2058 8.56483 50.8683 9.03838C50.5468 9.49561 49.9682 9.91201 49.1325 10.2876C49.9521 10.6795 50.5307 11.1204 50.8683 11.6103C51.2058 12.0838 51.4227 12.7289 51.5192 13.5453C51.6156 14.3455 51.6799 15.7416 51.712 17.7338C51.7442 18.5666 51.929 19.2035 52.2665 19.6444C52.604 20.1016 53.0782 20.3302 53.6889 20.3302C53.7532 20.3302 53.7853 20.3792 53.7853 20.4772C53.7853 20.5752 53.7532 20.6242 53.6889 20.6242C52.7567 20.6242 52.0656 20.5017 51.6156 20.2568C51.1817 20.0281 50.8843 19.5791 50.7236 18.9096C50.5629 18.2401 50.4825 17.2031 50.4825 15.7988C50.4825 14.2475 50.3459 12.9983 50.0727 12.0512C49.7995 11.0877 49.253 10.557 48.4333 10.4591Z" fill="white"/>
</svg>
